<svg width="28" height="28" viewBox="0 0 28 28" fill="none" xmlns="http://www.w3.org/2000/svg">
<path d="M13.9986 0.00272255C6.43309 -0.14645 0.172741 5.85306 0 13.4181C0.0197403 17.269 1.72489 20.9181 4.66619 23.4037V27.4167C4.66619 27.7388 4.92736 28 5.24949 28C5.3588 28 5.46592 27.9693 5.55861 27.9114L8.80979 25.8804C10.4662 26.514 12.2252 26.837 13.9986 26.8335C21.5642 26.9826 27.8245 20.9831 27.9973 13.4181C27.8245 5.85306 21.5642 -0.14645 13.9986 0.00272255Z" fill="white"/>
<path d="M23.2134 9.568C23.0399 9.33539 22.7217 9.26578 22.4668 9.40467L16.4008 12.7118L12.627 9.47581C12.3956 9.27742 12.0504 9.2906 11.8349 9.50616L4.83562 16.5055C4.60852 16.7339 4.60961 17.1033 4.83813 17.3304C5.02082 17.512 5.30096 17.5522 5.5274 17.4294L11.5935 14.1222L15.3707 17.3594C15.6022 17.5578 15.9473 17.5446 16.1628 17.329L23.1621 10.3297C23.3661 10.1238 23.388 9.79942 23.2134 9.568Z" fill="#1877F2"/>
</svg>
