<svg width="36" height="36" viewBox="0 0 36 36" fill="none" xmlns="http://www.w3.org/2000/svg">
<path d="M12.8054 29.3765C23.3715 29.3765 29.1507 20.6225 29.1507 13.0312C29.1507 12.7825 29.1507 12.535 29.1339 12.2886C30.2582 11.4754 31.2287 10.4685 32 9.31502C30.9516 9.77982 29.8394 10.0845 28.7005 10.2189C29.8998 9.50099 30.7973 8.37177 31.2261 7.04142C30.0984 7.71063 28.8647 8.18221 27.5782 8.43582C26.7121 7.51482 25.5666 6.90496 24.3189 6.70061C23.0712 6.49627 21.791 6.70882 20.6763 7.30538C19.5616 7.90194 18.6746 8.84925 18.1525 10.0007C17.6305 11.1522 17.5025 12.4436 17.7883 13.6752C15.5044 13.5606 13.27 12.967 11.2304 11.933C9.19068 10.899 7.39122 9.44762 5.9488 7.6731C5.21418 8.93776 4.98918 10.4349 5.31962 11.8596C5.65005 13.2843 6.51107 14.5295 7.72736 15.3417C6.8131 15.3149 5.91876 15.0683 5.12 14.6227V14.6955C5.12036 16.0218 5.57949 17.3072 6.41952 18.3336C7.25954 19.36 8.42874 20.0642 9.7288 20.3269C8.88306 20.5575 7.99569 20.5913 7.13488 20.4254C7.50212 21.5668 8.21683 22.5649 9.17911 23.2802C10.1414 23.9955 11.3031 24.3922 12.5019 24.4149C11.3108 25.3511 9.94687 26.0433 8.48802 26.4519C7.02917 26.8604 5.50408 26.9774 4 26.796C6.62714 28.4818 9.68391 29.3761 12.8054 29.372" fill="white"/>
</svg>
