<svg width="32" height="32" viewBox="0 0 32 32" fill="none" xmlns="http://www.w3.org/2000/svg">
<path d="M15.9924 1.87501C8.19532 1.87687 1.87684 8.20222 1.87849 16.0021C1.87901 18.5317 2.55855 21.0115 3.84158 23.184L1.9788 28.0196C1.97875 28.0198 1.9787 28.0199 1.97864 28.02C1.67169 28.8165 2.06781 29.7118 2.86472 30.0195L2.86492 30.0195C3.0417 30.0877 3.22999 30.1231 3.42055 30.1232M15.9924 1.87501C18.6354 1.87249 21.226 2.61229 23.4694 4.01023C30.0875 8.13416 32.1108 16.8446 27.9893 23.4657C23.9543 29.9479 15.5251 32.025 8.96273 28.24L3.94647 30.0317C3.94552 30.0321 3.94457 30.0324 3.94362 30.0327C3.77546 30.0933 3.59843 30.1237 3.42055 30.1232M15.9924 1.87501C15.9925 1.87501 15.9926 1.87501 15.9928 1.87501L15.993 2.87439L15.992 1.87501C15.9921 1.87501 15.9923 1.87501 15.9924 1.87501ZM3.42055 30.1232C3.41948 30.1232 3.41841 30.1232 3.41733 30.1232L3.42225 29.1232L3.42377 30.1232C3.42269 30.1232 3.42162 30.1232 3.42055 30.1232Z" stroke="white" stroke-width="2"/>
<path d="M22.246 18.2426C22.246 18.2426 20.907 17.5864 20.0685 17.149C19.1197 16.6601 18.0048 17.5755 17.4801 18.0961C16.6635 17.7823 15.9176 17.3086 15.2862 16.7028C14.6806 16.0711 14.2072 15.3249 13.8936 14.5078C14.4139 13.9817 15.3266 12.8672 14.8402 11.918C14.4084 11.078 13.7471 9.73935 13.7471 9.73828C13.6544 9.55403 13.4658 9.43771 13.2596 9.4375H12.1665C10.5746 9.71259 9.41717 11.1023 9.43377 12.7185C9.43377 14.4356 11.4877 17.7341 12.8727 19.1209C14.2577 20.5076 17.5545 22.5616 19.2717 22.5616C20.8871 22.5782 22.2761 21.4201 22.551 19.8274V18.7338C22.5512 18.5252 22.4329 18.3348 22.246 18.2426Z" fill="white"/>
</svg>
