<svg width="49" height="84" viewBox="0 0 49 84" fill="none" xmlns="http://www.w3.org/2000/svg">
<path fill-rule="evenodd" clip-rule="evenodd" d="M23.4694 1.13155C23.0898 1.75415 22.7244 2.35929 22.6575 2.47642C22.5906 2.59355 22.2102 3.22652 21.8121 3.88305C21.0397 5.15679 20.9524 5.3026 20.8872 5.42773C20.8325 5.53246 20.942 5.66587 21.994 6.77655C23.2961 8.15148 23.2928 8.14708 23.2915 8.4404C23.2877 9.26511 22.8691 10.3282 22.1869 11.2451C21.7477 11.8354 20.4149 13.227 19.7029 13.8387C19.5601 13.9614 19.2787 14.2124 19.0775 14.3964C18.8764 14.5806 18.4939 14.9232 18.2278 15.1578C17.9616 15.3923 17.7116 15.6138 17.6722 15.6499C17.6329 15.686 17.3787 15.9073 17.1073 16.1416C16.6004 16.5793 15.3238 17.714 15.265 17.7789C15.2469 17.799 15.01 18.007 14.7386 18.2414C14.4672 18.4756 14.2119 18.6971 14.1713 18.7335C9.94381 22.5238 7.56975 25.1841 5.8414 28.0679C5.32829 28.9239 5.2317 29.1755 5.49443 28.9712C6.83267 27.9307 8.48825 27.0593 10.2293 26.4791C12.404 25.7544 14.9793 25.4025 17.4693 25.49C20.4553 25.5949 22.958 25.9423 28.6223 27.0381C29.3642 27.1817 30.2821 27.3578 30.6621 27.4295C31.0421 27.5012 31.5011 27.5888 31.682 27.6241C33.816 28.0404 36.2962 28.3428 38.4594 28.4506C39.7574 28.5153 42.7946 28.2839 42.9703 28.107C43.0394 28.0373 42.4566 27.0761 41.6041 25.8538C41.2847 25.3957 40.2101 24.0902 39.5788 23.393C38.6601 22.3787 37.7822 21.5122 36.1196 19.9788C35.7237 19.6138 32.0239 16.4517 31.0898 15.6802C30.7641 15.4111 30.4828 15.1761 30.4647 15.1578C30.4466 15.1396 30.1655 14.9033 29.84 14.6327C29.5145 14.3621 29.1444 14.049 29.0175 13.9368C28.8907 13.8248 28.6092 13.5778 28.392 13.388C27.5784 12.6767 26.4868 11.564 26.1079 11.0597C25.6535 10.4547 25.4526 10.0822 25.3016 9.56447C25.1754 9.13151 25.0684 8.26881 25.1272 8.15915C25.1496 8.11749 25.538 7.69181 25.9904 7.21331C26.4427 6.73475 26.8425 6.30907 26.8787 6.2674C26.9148 6.22574 27.0878 6.04233 27.2629 5.85984L27.5813 5.52807L26.0187 2.94429C25.1592 1.52323 24.409 0.279474 24.3514 0.180454C24.2938 0.0814341 24.2271 0.000262536 24.2032 5.70671e-08C24.1793 -0.000196802 23.8491 0.508947 23.4694 1.13155ZM14.9689 27.4725C13.6075 27.5563 12.0916 27.7885 11.1196 28.0621C10.377 28.2712 9.49716 28.5649 9.17856 28.7099C8.99761 28.7923 8.62518 28.9616 8.35093 29.0862C7.62187 29.4173 6.38391 30.1395 6.32726 30.2667C6.31515 30.2938 6.27831 30.3159 6.24527 30.3159C6.14947 30.3159 5.0085 31.2193 4.38459 31.7891L3.81339 32.3108L3.62072 32.9374C3.19151 34.3331 2.9726 35.8765 2.91516 37.9114C2.89252 38.7144 2.8889 39.3714 2.90713 39.3714C2.92535 39.3714 3.40569 39.1489 3.97446 38.877C4.54323 38.605 5.23617 38.2926 5.51437 38.1827C5.79257 38.0728 6.109 37.9429 6.21757 37.8941C6.70061 37.6768 8.53846 37.0672 9.4965 36.8064C10.1088 36.6398 10.0921 36.6519 10.7581 35.8901C10.8668 35.7657 11.3826 35.1767 11.9044 34.5812C12.4262 33.9857 13.0182 33.3076 13.2201 33.0745C14.3573 31.7609 15.1483 30.9002 15.1996 30.9207C15.2252 30.9309 15.6428 31.3951 16.1275 31.9521C16.6121 32.5092 17.5316 33.5595 18.1706 34.2862L19.3325 35.6073L20.2762 35.6847C22.0626 35.8311 24.8744 36.3201 27.3722 36.9187C28.0175 37.0734 28.3792 37.1524 30.3331 37.5657C31.5875 37.831 33.7881 38.1813 34.9062 38.2936C36.362 38.4398 39.0008 38.4863 40.4742 38.3917C42.055 38.2901 44.8146 37.9389 45.4506 37.7584C45.5505 37.7301 45.5523 37.5211 45.4652 36.0576C45.3341 33.8539 44.9393 32.0859 44.2226 30.4927C44.0114 30.0234 43.9761 30.0034 43.5589 30.1167C43.0758 30.2479 41.438 30.4467 40.2809 30.5145C37.3947 30.6838 34.2593 30.3153 27.8985 29.0592C22.4142 27.9762 20.2279 27.6452 17.568 27.4954C16.4761 27.4339 15.7069 27.4271 14.9689 27.4725ZM15.0566 33.5246C15.0446 33.5571 14.8694 33.7711 14.6674 34.0003C14.4653 34.2296 14.0804 34.6661 13.812 34.9704C12.6461 36.2922 12.4356 36.5473 12.4356 36.6388C12.4356 36.6921 12.4579 36.7455 12.485 36.7576C12.5121 36.7696 12.7268 37.0005 12.962 37.2707C13.1973 37.5408 13.5269 37.91 13.6945 38.0909C13.862 38.2719 14.125 38.5676 14.2789 38.748C14.7786 39.3344 15.1441 39.7069 15.1995 39.6866C15.2878 39.6542 17.8958 36.6524 17.8792 36.6022C17.84 36.4831 15.2226 33.473 15.1553 33.4696C15.1132 33.4674 15.0687 33.4922 15.0566 33.5246Z" fill="#F8C000"/>
<path d="M22.542 42.5326C23.3568 42.2856 23.7837 42.1994 24.7407 42.0888C25.259 42.0289 25.9742 42.0115 27.0107 42.0336C28.36 42.0625 30.7963 42.2162 31.0574 42.2889C31.1117 42.304 31.3486 42.3361 31.5838 42.3602C31.8191 42.3843 32.0707 42.4159 32.1431 42.4306C32.2155 42.4452 32.7781 42.532 33.3933 42.6233C34.0085 42.7146 34.7488 42.8321 35.0383 42.8844C38.2791 43.4693 40.9922 43.435 43.2811 42.7802C43.6528 42.6739 44.0081 42.588 44.0707 42.5893C44.1333 42.5907 44.4746 42.8638 44.8293 43.1963L45.4741 43.8009L45.3019 44.3914C44.8616 45.9013 44.0108 47.1944 42.4652 48.7028C41.5482 49.5976 40.208 50.5697 38.9995 51.2167C38.681 51.3871 38.4313 51.5373 38.4444 51.5504C38.4575 51.5635 38.7594 51.6636 39.1152 51.7729C40.139 52.0871 41.5629 52.4187 42.2434 52.5013C43.1993 52.6173 45.1212 52.5201 45.6105 52.331C45.7242 52.2871 45.7731 52.3262 46.1913 52.7973C46.318 52.94 46.5472 53.1952 46.7006 53.3645L46.9797 53.6723L46.8083 54.1502C46.5751 54.801 45.9877 55.9568 45.5961 56.5355C44.8811 57.5923 43.9246 58.5955 42.8685 59.3964C42.5427 59.6434 42.2453 59.8704 42.2074 59.9009C41.9465 60.111 40.3758 60.9772 39.6871 61.2908C37.289 62.3827 34.229 63.094 31.7154 63.1437L30.9587 63.1587L30.9406 62.1237C30.9267 61.3287 30.9419 61.0832 31.0064 61.0647C31.0526 61.0514 31.5823 61.0066 32.1837 60.9651C33.9896 60.8407 36.1258 60.3465 37.9151 59.6392C38.8288 59.2779 39.8079 58.7603 40.7249 58.1536C41.7253 57.4918 43.0918 56.154 43.6896 55.2515L44.1024 54.6281L42.7616 54.5869C42.0242 54.5642 41.258 54.5118 41.059 54.4704C40.8599 54.429 40.623 54.3818 40.5326 54.3656C40.2017 54.3064 38.6338 53.8618 37.7636 53.5804C36.2815 53.101 34.9928 52.825 34.2323 52.824L33.9526 52.8236V51.7507V50.6779L34.6271 50.6366C35.2152 50.6006 35.8725 50.4797 36.1898 50.3492C36.2441 50.3268 36.3033 50.3047 36.3214 50.3001C36.7667 50.1855 37.7904 49.6921 38.5124 49.244C39.9108 48.3762 41.6945 46.6242 42.4371 45.389L42.5869 45.1399L42.4315 45.1743C40.9722 45.4974 38.7662 45.6257 37.3223 45.4715C36.2828 45.3606 34.5029 45.0928 33.2288 44.8557C31.2135 44.4807 27.4415 44.1749 25.8083 44.2541C23.584 44.362 21.8087 45.0313 20.7216 46.1717C20.2496 46.6667 20.0307 47.0173 19.7857 47.6701C19.6151 48.1249 19.5837 48.3105 19.5578 49.0202C19.5241 49.9444 19.6059 50.3947 19.9354 51.0997C20.2063 51.6792 20.4901 52.0686 21.0126 52.5781C22.2059 53.7415 24.2598 54.5297 26.0977 54.5297H26.6479L26.6648 50.3136L26.6818 46.0975H27.7345H28.7873L28.8041 54.6462L28.8207 63.1948L27.7513 63.1767L26.6818 63.1587L26.6647 59.8715L26.6477 56.5842L25.7764 56.5416C24.6911 56.4886 23.8553 56.3551 22.9641 56.0924C19.9402 55.2012 17.7911 53.1824 17.1966 50.6745L17.0838 50.1988H15.4553C13.6471 50.1988 13.8125 50.155 13.7196 50.6581C13.6442 51.0661 13.4103 51.7296 13.179 52.1912C12.398 53.75 11.0775 54.9506 9.2738 55.7414C8.52592 56.0694 7.11847 56.469 6.56437 56.5107L6.29406 56.5311L6.17187 56.1374C5.85235 55.1077 5.73299 54.588 5.81063 54.5646C5.8538 54.5516 6.17036 54.4923 6.51416 54.4328C7.81371 54.2081 8.93822 53.6926 9.8127 52.9208C11.4085 51.5125 11.9034 49.0813 10.9796 47.1893C10.1974 45.5874 8.17389 44.5123 5.75747 44.4147L5.36267 44.3988L5.32977 53.7787L5.29687 63.1587L4.22763 63.1767L3.15838 63.1948V53.8676V44.5404L2.78003 44.5837C2.2283 44.6468 1.41015 44.814 0.929617 44.9617C0.69899 45.0327 0.487575 45.0662 0.459808 45.0363C0.400588 44.9726 0 43.3056 0 43.1229C0 43.0362 0.0847499 42.9677 0.279648 42.8968C1.3635 42.5031 3.51798 42.1932 5.17146 42.1932C7.29718 42.1932 9.31933 42.7388 10.8476 43.7247C11.4237 44.0964 12.294 44.9173 12.6674 45.4413C13.1623 46.1357 13.6074 47.1408 13.7228 47.8242C13.8107 48.3448 13.6421 48.3001 15.4438 48.2805L17.06 48.263L17.2041 47.6724C17.813 45.1768 19.6478 43.4101 22.542 42.5326Z" fill="#1B1400"/>
<path d="M16.842 60.2347C18.0791 59.5895 19.3692 58.2997 20.4309 56.6465C20.5756 56.4212 20.721 56.2367 20.7541 56.2364C20.8818 56.2351 22.5031 57.3234 22.5033 57.4105C22.5035 57.5468 21.768 58.6681 21.1862 59.4183C19.7021 61.3319 17.9076 62.4879 15.743 62.9246C15.0265 63.0692 13.3383 63.2123 12.7322 63.1798L12.3374 63.1587V62.1088V61.0588L13.4231 61.0195C14.9802 60.963 15.8114 60.7721 16.842 60.2347Z" fill="#1B1400"/>
<path d="M6.90376 64.5013L7.84345 62.9605C8.3603 62.1131 8.81498 61.4197 8.85387 61.4197C8.89269 61.4197 8.99468 61.5453 9.08042 61.6986C9.16615 61.852 9.57128 62.5344 9.98082 63.215C10.3903 63.8957 10.7253 64.4682 10.7253 64.4872C10.7253 64.5062 10.4548 64.8299 10.1243 65.2065L9.52318 65.8912L9.56516 66.292C9.6534 67.1337 10.1177 68.6801 10.5956 69.7241C10.6774 69.9026 10.8215 70.2264 10.9158 70.4435C11.0101 70.6607 11.6387 71.8713 12.3128 73.1339C14.0995 76.481 14.748 77.9289 15.2681 79.7328C15.6346 81.0036 15.8882 82.2985 15.9645 83.2878L16.0083 83.8553L14.943 83.8749C13.9223 83.8937 13.8767 83.889 13.8516 83.7633C13.8372 83.6911 13.7915 83.3367 13.75 82.9758C13.5033 80.8294 12.7117 78.5275 11.3115 75.8854C11.1596 75.5986 10.5505 74.4119 9.95818 73.2482C9.36585 72.0845 8.86933 71.1248 8.85479 71.1155C8.83038 71.0999 6.94462 74.7801 5.91223 76.8583C5.353 77.9841 4.82634 79.3024 4.48405 80.4337C4.24862 81.2117 4.11228 81.876 3.87823 83.386L3.80447 83.8617H2.72351H1.64249L1.67289 83.714C1.68967 83.6329 1.72198 83.3449 1.74468 83.0743C1.80455 82.3621 2.07697 80.9232 2.3099 80.0886C2.42077 79.6916 2.52217 79.3224 2.53533 79.2683C2.59237 79.0333 3.25465 77.3391 3.53574 76.7091C3.92883 75.8282 5.38748 72.9836 5.65561 72.5751C5.85452 72.2721 6.82882 70.3177 7.11024 69.6573C7.52445 68.6852 7.80285 67.8253 7.99104 66.9365C8.08349 66.4997 8.15915 66.0883 8.15915 66.0224C8.15915 65.9564 7.87668 65.5872 7.53149 65.2019L6.90376 64.5013Z" fill="#1B1400"/>
<path d="M19.9373 71.8592V68.5737V65.288L21.0065 65.3061L22.0758 65.3241L22.0928 68.5559C22.1089 71.6059 22.1165 71.7877 22.2272 71.7877C22.2917 71.7877 22.9214 71.6418 23.6266 71.4634C25.093 71.0926 25.7177 71.0002 26.7575 71.0002C27.6764 71.0002 28.2199 71.0748 29.6683 71.3997C30.2979 71.5409 30.838 71.6564 30.8688 71.6564C30.8994 71.6564 30.9323 70.2316 30.9416 68.4903L30.9587 65.3241H32.0284H33.0981V74.5765V83.8289H32.0284H30.9587L30.9419 78.8405L30.925 73.852L29.8891 73.6065C27.9 73.1352 27.5712 73.0879 26.4844 73.1174C25.5545 73.1426 25.4231 73.1634 24.2143 73.4769C23.5086 73.6599 22.7461 73.8458 22.5199 73.8899L22.1087 73.9702V78.9159V83.8617H21.023H19.9373V78.9441C19.9373 76.1243 19.9122 74.011 19.8785 73.9902C19.8461 73.9702 19.5278 73.8957 19.1711 73.8245C18.8144 73.7533 18.4207 73.665 18.2962 73.6282C17.9337 73.5212 16.9322 73.3488 16.2196 73.2706L15.5616 73.1985V72.1814V71.1643L16.1166 71.1796C16.7214 71.1962 17.8355 71.3778 18.8187 71.6201C19.1625 71.7049 19.5549 71.7933 19.6905 71.8167L19.9373 71.8592Z" fill="#1B1400"/>
<path d="M37.4231 74.5884C37.432 69.4931 37.4394 65.3168 37.4396 65.3077C37.4398 65.2987 37.9137 65.2913 38.4928 65.2913H39.5456V73.5286C39.5456 80.9706 39.5556 81.7698 39.6494 81.8057C39.8533 81.8837 41.6156 81.6985 42.2763 81.5296C42.6382 81.437 43.2413 81.2129 43.6167 81.0316C44.1962 80.7516 44.38 80.6211 44.8365 80.1655C45.2286 79.7744 45.4322 79.5078 45.5889 79.1804C46.3068 77.6803 46.1882 75.8793 45.2928 74.6836C44.5103 73.6385 43.0025 72.8425 41.2235 72.5355C40.8978 72.4793 40.6119 72.4135 40.5881 72.3893C40.5644 72.3652 40.6681 71.9178 40.8184 71.3951L41.0919 70.4448L41.388 70.4652C42.7227 70.5577 44.797 71.3134 45.8294 72.0834C47.1177 73.0443 47.9417 74.233 48.2988 75.6459C48.4777 76.354 48.4768 77.8237 48.2969 78.6351C48.0402 79.7931 47.4759 80.7963 46.5963 81.6581C45.2993 82.929 43.6752 83.6232 41.2748 83.9328C40.6735 84.0103 37.9358 83.9805 37.5716 83.8925L37.4071 83.8527L37.4231 74.5884Z" fill="#1B1400"/>
<path d="M7.56584 79.662C7.58466 79.644 7.86227 79.3266 8.18258 78.9566C8.50296 78.5867 8.78418 78.2862 8.80761 78.2888C8.85308 78.294 10.6816 80.358 10.8383 80.5811C10.926 80.706 10.8716 80.7831 9.99161 81.7796C9.47442 82.3654 8.99659 82.9036 8.92973 82.9758C8.80906 83.1063 8.80702 83.1056 8.59889 82.8752C8.48368 82.7477 8.14895 82.3786 7.85503 82.0549C7.0803 81.202 6.71156 80.7614 6.71156 80.6887C6.71156 80.6398 7.36614 79.8531 7.56584 79.662Z" fill="#1B1400"/>
</svg>
