<svg width="20" height="20" viewBox="0 0 20 20" fill="none" xmlns="http://www.w3.org/2000/svg">
<path d="M9.16634 10.0001C9.16634 10.4603 9.53944 10.8334 9.99967 10.8334C10.4599 10.8334 10.833 10.4603 10.833 10.0001C10.833 9.53984 10.4599 9.16675 9.99967 9.16675C9.53944 9.16675 9.16634 9.53984 9.16634 10.0001Z" stroke="#1B1400" stroke-linecap="round" stroke-linejoin="round"/>
<path d="M9.16634 15.8333C9.16634 16.2936 9.53944 16.6667 9.99967 16.6667C10.4599 16.6667 10.833 16.2936 10.833 15.8333C10.833 15.3731 10.4599 15 9.99967 15C9.53944 15 9.16634 15.3731 9.16634 15.8333Z" stroke="#1B1400" stroke-linecap="round" stroke-linejoin="round"/>
<path d="M9.16634 4.16683C9.16634 4.62707 9.53944 5.00016 9.99967 5.00016C10.4599 5.00016 10.833 4.62707 10.833 4.16683C10.833 3.70659 10.4599 3.3335 9.99967 3.3335C9.53944 3.3335 9.16634 3.70659 9.16634 4.16683Z" stroke="#1B1400" stroke-linecap="round" stroke-linejoin="round"/>
</svg>
