<svg width="69" height="120" viewBox="0 0 69 120" fill="none" xmlns="http://www.w3.org/2000/svg">
<path fill-rule="evenodd" clip-rule="evenodd" d="M30.7532 2.95567C29.7056 4.69896 28.6828 6.39787 28.4806 6.73113L28.1125 7.33685L29.7005 9.11145L31.2882 10.8861L31.2183 11.8267C31.0348 14.2943 28.9203 16.7796 21.3996 23.3679C12.5244 31.1426 9.31078 34.4809 6.17201 39.1859C3.32129 43.4593 1.87216 46.9139 1.20432 51.0288C0.899389 52.9077 0.69036 57.0744 0.901212 57.0744C0.986016 57.0744 2.1804 56.5916 3.55533 56.0016C6.65682 54.6706 9.32403 53.7375 12.1194 53.0056C14.2155 52.4567 14.2793 52.4501 14.5211 52.7547C14.6578 52.9268 15.9583 54.4176 17.4111 56.0675C19.4742 58.4106 20.0942 59.0214 20.2426 58.8576C20.3471 58.7423 21.7906 57.1014 23.4503 55.211C26.192 52.0885 26.5162 51.7741 26.9957 51.7746C27.8545 51.7753 32.4449 52.5374 35.4738 53.1822C47.1122 55.6596 48.2232 55.8186 53.942 55.8254C58.4711 55.8308 59.7672 55.7256 63.5314 55.0462L64.5906 54.8551L64.4886 52.5277C64.1934 45.7848 61.3901 39.8731 55.3237 33.2014C52.7518 30.3727 50.4021 28.235 43.7555 22.6775C36.3957 16.5236 34.5234 14.4089 34.1608 11.8406C34.0421 10.9998 34.0182 11.0376 36.2606 8.50573C36.7845 7.91425 37.213 7.37544 37.213 7.30853C37.213 7.1732 33.2222 0.507267 32.8765 0.0653557C32.684 -0.180776 32.4319 0.162252 30.7532 2.95567ZM33.6518 17.0967C34.9565 18.7987 37.5555 21.2067 43.094 25.8454C50.4869 32.0372 55.1433 36.7907 57.6631 40.718L57.9553 41.1735H55.8594C51.8066 41.1735 49.0329 40.7583 38.2896 38.5433C29.6804 36.7683 25.0732 36.2439 20.6859 36.5393C16.951 36.7907 14.2183 37.4312 11.1846 38.7665C10.2532 39.1763 9.47111 39.4914 9.44643 39.4667C9.36477 39.385 11.2048 37.148 12.9797 35.1706C14.7035 33.2504 18.3524 29.7991 22.2231 26.4278C27.9964 21.3995 30.5325 18.936 31.9582 16.9711C32.3432 16.4408 32.6953 16.0089 32.7409 16.0116C32.7864 16.0141 33.1963 16.5024 33.6518 17.0967ZM27.9375 39.5974C29.8216 39.8561 33.9757 40.6695 42.5961 42.4676C48.4531 43.6895 50.1874 43.8903 55.0946 43.9148L59.477 43.9366L59.9492 45.081C60.2089 45.7104 60.6071 46.8589 60.8342 47.6333C61.2688 49.115 61.795 52.1923 61.6529 52.4221C61.4575 52.7384 57.6875 53.0159 53.7764 53.0018C49.2882 52.9857 47.4283 52.7737 42.0992 51.6706C33.3381 49.8574 30.4962 49.3106 28.9313 49.1374C27.9747 49.0315 26.9571 48.9086 26.6699 48.8643C26.1774 48.7884 24.7366 47.2586 20.4627 42.2743L20.0574 41.8016L16.607 45.7527C14.7093 47.9258 13.0349 49.7542 12.8865 49.8158C12.7379 49.8774 11.5301 50.2306 10.2024 50.6004C8.23482 51.1485 5.74236 51.9921 4.06614 52.6771C3.82167 52.7772 3.8167 52.669 4.0095 51.4645C4.37952 49.1539 5.36786 46.2328 6.44978 44.2523C6.93144 43.3708 7.1254 43.1929 8.39267 42.4708C10.9653 41.0046 14.1648 39.9258 17.4094 39.4309C19.4154 39.1248 25.1578 39.2156 27.9375 39.5974ZM22.1232 48.1308L24.1494 50.4502L22.1096 52.777L20.0699 55.1038L19.4305 54.3915C19.0787 53.9996 18.1555 52.9493 17.3785 52.0575L15.9661 50.4363L16.2916 50.0699C16.4706 49.8685 17.3828 48.8278 18.3188 47.7575C19.2548 46.6872 20.0379 45.8113 20.0589 45.8113C20.08 45.8113 21.0088 46.8551 22.1232 48.1308ZM33.5082 60.9648C28.5914 61.9879 25.1737 64.8307 24.2958 68.6274L24.0949 69.4969H21.7308H19.3669L19.2544 68.793C18.8804 66.4528 16.607 63.6843 14.0242 62.4245C11.4415 61.1646 8.41304 60.698 4.95643 61.0276C2.9559 61.2182 0.177225 61.8023 0.014076 62.0663C-0.0894452 62.2337 0.405965 64.5271 0.587666 64.7206C0.644313 64.7808 1.32424 64.6896 2.09858 64.5175C2.87292 64.3454 3.71136 64.2028 3.96196 64.2006L4.41745 64.1967V77.3646V90.5325H5.90816H7.39886V77.2817V64.031L8.35126 64.0335C11.4592 64.0415 14.4299 65.7256 15.5504 68.1149C16.9897 71.1843 15.79 74.939 12.7449 76.896C11.8839 77.4494 9.87989 78.1695 8.66861 78.361C8.19192 78.4364 8.05759 78.5238 8.12981 78.7118C8.18264 78.8495 8.35358 79.4411 8.50961 80.0268C8.83938 81.2644 8.83193 81.2619 10.7419 80.7735C15.0743 79.6654 18.3577 76.6798 19.1809 73.0995L19.3999 72.1471H21.7259H24.0519L24.4327 73.3739C25.773 77.6915 30.369 80.7812 35.8465 81.0471L37.7099 81.1375V85.8349V90.5325H39.2006H40.6913V78.4412V66.3499H39.2006H37.7099V72.4184V78.4867L36.2877 78.3713C30.6557 77.9143 26.785 74.0689 27.5853 69.7257C27.9939 67.508 29.1991 65.963 31.3136 64.946C33.3648 63.9593 34.3859 63.7865 38.0411 63.8074C41.4373 63.8268 43.3037 64.0181 48.5589 64.8857C52.4019 65.5201 55.946 65.6655 58.4005 65.2895C59.3496 65.1441 60.1526 65.0518 60.1851 65.0843C60.3123 65.2115 58.644 67.294 57.5528 68.3703C54.9073 70.9792 51.9309 72.5544 49.0144 72.889L47.9792 73.0077V74.4583V75.9088L49.18 76.0006C50.3545 76.0902 51.7155 76.4266 54.9823 77.4348C57.1251 78.0962 59.1636 78.44 60.9462 78.4407L62.4017 78.4412L61.6988 79.4764C58.7051 83.8859 52.4445 86.9452 45.2462 87.5158L43.7555 87.6339L43.7076 89.0832L43.6598 90.5325L44.7014 90.5295C48.0848 90.5195 53.0284 89.293 56.6385 87.5676C60.8773 85.5417 64.4609 81.9197 65.922 78.1844L66.3139 77.1825L65.4693 76.2305L64.6246 75.2784L63.3826 75.4727C61.0823 75.8324 57.7002 75.3597 54.2791 74.2C54.1321 74.1503 54.5143 73.8584 55.2477 73.4604C59.6362 71.0792 62.8723 67.4759 64.0465 63.6633C64.171 63.259 64.091 63.1217 63.2637 62.3202L62.3423 61.4276L60.8337 61.8137C58.7542 62.3459 56.1708 62.6024 54.2733 62.4653C53.4078 62.4028 50.4264 62.0131 47.6479 61.5995C42.9533 60.9005 42.3148 60.8431 38.6209 60.7877C35.6224 60.7427 34.3662 60.7863 33.5082 60.9648ZM28.3272 82.1265C27.0747 83.9222 26.0648 84.9657 24.6889 85.8859C23.0433 86.9866 21.7053 87.3962 19.3245 87.5282L17.4197 87.6339L17.3718 89.0832L17.324 90.5325L18.6141 90.5273C21.4183 90.5162 23.9878 89.8958 25.9499 88.7562C27.374 87.9289 29.6241 85.6671 30.8225 83.8582C31.3532 83.0571 31.7598 82.3824 31.7259 82.3591C30.9517 81.8244 29.4472 80.9257 29.3263 80.9257C29.2375 80.9257 28.7878 81.4661 28.3272 82.1265ZM11.0168 90.3314L9.74871 92.4358L10.642 93.4532L11.5352 94.4707L11.3631 95.4415C10.926 97.9058 10.0324 100.029 7.15522 105.44C4.03401 111.309 3.01139 114.253 2.36558 119.229L2.28508 119.85H3.75409C5.4154 119.85 5.3074 119.947 5.49689 118.276C5.67064 116.743 6.34113 114.354 7.15671 112.363C7.80914 110.77 12.374 101.573 12.4625 101.674C12.667 101.907 17.4389 111.65 17.8265 112.626C18.5951 114.561 19.1044 116.445 19.3462 118.247L19.5614 119.85H21.0393H22.5173L22.4036 118.732C22.0108 114.868 21.0468 112.2 17.5512 105.304C14.6402 99.561 13.6651 97.1929 13.4412 95.3219L13.3304 94.397L14.1706 93.4368C14.6328 92.9088 14.9861 92.4306 14.9559 92.3741C14.4421 91.4156 12.4638 88.2154 12.3879 88.2202C12.3314 88.224 11.7143 89.1739 11.0168 90.3314ZM28.1031 98.3204V102.961L27.7304 102.875C27.5254 102.828 26.7242 102.639 25.9499 102.455C25.1755 102.271 23.9642 102.074 23.2583 102.016L21.9746 101.912V103.319V104.725L23.3143 104.915C24.051 105.019 25.4298 105.273 26.378 105.479L28.1021 105.854L28.1026 112.852L28.1031 119.85H29.5938H31.0845V112.848V105.846L32.3682 105.562C33.0741 105.405 34.3227 105.121 35.1425 104.93C37.0972 104.476 39.0803 104.556 41.7265 105.194L43.6727 105.664V112.757V119.85H45.1634H46.6541V106.765V93.6795H45.1634H43.6727V98.1516C43.6727 101.653 43.6271 102.624 43.4627 102.624C43.3471 102.624 42.4341 102.436 41.4337 102.207C40.0978 101.901 39.1307 101.788 37.7927 101.784C36.0345 101.779 35.3155 101.888 32.4096 102.6L31.1673 102.905L31.1233 98.2922L31.0794 93.6795H29.5912H28.1031V98.3204ZM52.7826 106.754V119.829L53.5466 119.944C53.9668 120.007 55.4388 120.019 56.8179 119.97C61.0344 119.821 63.4898 118.919 65.707 116.706C67.6573 114.758 68.4027 112.967 68.396 110.243C68.3917 108.471 67.872 106.88 66.8113 105.394C65.4391 103.471 63.2423 102.077 60.4802 101.376C58.0799 100.767 58.1703 100.739 57.7067 102.251C57.2527 103.732 57.1457 103.593 59.0616 104.017C62.4294 104.762 64.6612 106.774 65.0039 109.372C65.588 113.8 62.7375 116.614 57.2961 116.981L55.764 117.084V105.382V93.6795H54.2733H52.7826V106.754ZM10.8432 113.749L9.40138 115.408L10.8412 117.05C11.6331 117.953 12.3304 118.673 12.3909 118.649C12.4514 118.626 13.1139 117.912 13.8632 117.062C15.4608 115.25 15.4808 115.488 13.5585 113.444L12.2851 112.09L10.8432 113.749Z" fill="black"/>
</svg>
